<?xml version="1.0" encoding="UTF-8"?>
<svg id="Layer_1" data-name="Layer 1" xmlns="http://www.w3.org/2000/svg" viewBox="0 0 309 305">
  <defs>
    <style>
      .cls-1 {
        fill: none;
        stroke: #000;
        stroke-miterlimit: 10;
        stroke-width: 5px;
      }
    </style>
  </defs>
  <path d="M155,8c38.73,0,75.14,15.08,102.53,42.47,27.39,27.39,42.47,63.8,42.47,102.53s-15.08,75.14-42.47,102.53c-27.39,27.39-63.8,42.47-102.53,42.47s-75.14-15.08-102.53-42.47c-27.39-27.39-42.47-63.8-42.47-102.53S25.08,77.86,52.47,50.47C79.86,23.08,116.27,8,155,8m0-5C72.16,3,5,70.16,5,153s67.16,150,150,150,150-67.16,150-150S237.84,3,155,3h0Z"/>
  <line class="cls-1" x1="64.5" y1="153.5" x2="246" y2="153.5"/>
  <line class="cls-1" x1="64.53" y1="106.49" x2="246.03" y2="106.49"/>
  <line class="cls-1" x1="64.53" y1="200.49" x2="246.03" y2="200.49"/>
</svg>